<svg width="582" height="347" xmlns="http://www.w3.org/2000/svg" xmlns:xlink="http://www.w3.org/1999/xlink" xml:space="preserve" overflow="hidden"><g><path d="M230.383 6.75389 620.007 6.75389 620.007 206.369 230.383 206.369Z" stroke="#80350E" stroke-width="2.06369" stroke-miterlimit="8" fill="#FBE3D6" fill-opacity="0.6" transform="matrix(1.00046 0 0 1 -39.3406 -5.70329)"/><path d="M40.3733 108.813 348.951 108.813 348.951 351.653 40.3733 351.653Z" stroke="#0B3041" stroke-width="2.06369" stroke-miterlimit="8" fill="#C1E5F5" fill-opacity="0.6" transform="matrix(1.00046 0 0 1 -39.3406 -5.70329)"/><path d="M76.9193 269.48C76.9193 264.092 81.2871 259.725 86.6751 259.725L184.081 259.725C189.469 259.725 193.837 264.092 193.837 269.48L193.837 308.503C193.837 313.891 189.469 318.258 184.081 318.258L86.6751 318.258C81.2871 318.258 76.9193 313.891 76.9193 308.503Z" stroke="#042433" stroke-width="1.03184" stroke-miterlimit="8" fill="#46B1E1" fill-rule="evenodd" transform="matrix(1.00046 0 0 1 -39.3406 -5.70329)"/><text fill="#FFFFFF" font-family="Aptos,Aptos_MSFontService,sans-serif" font-weight="400" font-size="83" transform="matrix(0.150155 0 0 0.150087 62.5308 280)">Density data</text><path d="M122.433 292.152 124.605 292.152 125.298 298.052 128.844 292.152 130.76 292.152 130.693 292.451C130.539 292.483 130.429 292.52 130.362 292.561 130.295 292.601 130.234 292.661 130.179 292.742 130.125 292.823 130.07 292.951 130.015 293.123 129.96 293.295 129.89 293.577 129.805 293.965L128.765 298.686C128.712 298.924 128.678 299.115 128.662 299.254 128.645 299.394 128.637 299.52 128.637 299.634 128.637 299.817 128.683 299.945 128.774 300.02 128.865 300.095 129.018 300.142 129.233 300.158L129.166 300.455 126.733 300.455 126.8 300.158C126.954 300.132 127.07 300.093 127.147 300.039 127.224 299.984 127.289 299.907 127.342 299.811 127.394 299.714 127.443 299.595 127.488 299.456 127.532 299.315 127.599 299.044 127.688 298.642L128.497 294.976C128.611 294.468 128.741 293.964 128.887 293.461L128.802 293.461C128.676 293.7 128.392 294.186 127.95 294.92L125.182 299.489 124.519 299.489 124.015 295.577C123.941 295.025 123.86 294.284 123.771 293.352L123.65 293.352C123.512 294.26 123.358 295.1 123.187 295.875L122.567 298.686C122.482 299.071 122.439 299.387 122.439 299.634 122.439 299.817 122.485 299.945 122.576 300.02 122.667 300.095 122.82 300.142 123.035 300.158L122.968 300.455 120.839 300.455 120.906 300.158C121.06 300.132 121.176 300.093 121.253 300.039 121.33 299.984 121.395 299.907 121.448 299.811 121.5 299.714 121.549 299.595 121.594 299.456 121.638 299.315 121.705 299.044 121.794 298.642L122.828 293.959C122.869 293.785 122.901 293.619 122.926 293.461 122.95 293.302 122.962 293.141 122.962 292.979 122.962 292.789 122.915 292.657 122.819 292.582 122.724 292.507 122.573 292.463 122.366 292.451Z" fill="#FFFFFF" fill-rule="evenodd" transform="matrix(1.00046 0 0 1 -39.3406 -5.70329)"/><path d="M132.501 298.464 132.72 298.464 132.059 301.441C132.017 301.617 131.988 301.756 131.972 301.861 131.955 301.965 131.947 302.06 131.947 302.144 131.947 302.256 131.97 302.339 132.016 302.388 132.062 302.439 132.132 302.465 132.224 302.465 132.278 302.465 132.331 302.454 132.385 302.433 132.439 302.412 132.496 302.379 132.557 302.336 132.618 302.291 132.685 302.234 132.758 302.163 132.831 302.093 132.913 302.009 133.002 301.911L133.306 302.205C133.151 302.364 133.01 302.496 132.883 302.606 132.757 302.714 132.637 302.803 132.524 302.872 132.41 302.941 132.299 302.99 132.191 303.019 132.082 303.049 131.966 303.064 131.844 303.064 131.731 303.064 131.629 303.043 131.538 303.001 131.447 302.96 131.369 302.902 131.303 302.83 131.238 302.756 131.187 302.669 131.151 302.568 131.115 302.466 131.098 302.355 131.098 302.232 131.098 302.135 131.11 302.012 131.133 301.866 131.157 301.72 131.188 301.561 131.225 301.39 131.262 301.219 131.303 301.039 131.348 300.851 131.393 300.664 131.437 300.478 131.48 300.292 131.523 300.107 131.562 299.93 131.596 299.759 131.63 299.586 131.655 299.432 131.67 299.29 131.676 299.266 131.679 299.244 131.679 299.221 131.679 299.199 131.679 299.179 131.679 299.161 131.673 299.044 131.632 298.96 131.556 298.906 131.48 298.852 131.345 298.824 131.151 298.818L131.205 298.513ZM132.242 296.662 133.136 296.662 132.917 297.623 132.032 297.623Z" fill="#FFFFFF" fill-rule="evenodd" transform="matrix(1.00046 0 0 1 -39.3406 -5.70329)"/><path d="M135.174 299.044 136.239 299.044C136.295 299.328 136.324 299.607 136.324 299.883 136.324 300.167 136.275 300.427 136.178 300.662 136.08 300.898 135.925 301.132 135.712 301.365 135.5 301.597 135.207 301.854 134.834 302.135L134.505 301.764C134.712 301.569 134.862 301.393 134.955 301.237 135.048 301.081 135.115 300.904 135.156 300.704 135.196 300.506 135.217 300.257 135.217 299.957 135.217 299.649 135.203 299.345 135.174 299.044Z" fill="#FFFFFF" fill-rule="evenodd" transform="matrix(1.00046 0 0 1 -39.3406 -5.70329)"/><path d="M140.918 294.537C141.174 294.537 141.376 294.621 141.524 294.789 141.672 294.958 141.746 295.178 141.746 295.45 141.746 295.664 141.697 295.903 141.6 296.167L141.673 296.191C142.07 295.631 142.448 295.217 142.807 294.947 143.166 294.678 143.536 294.543 143.917 294.543 144.294 294.543 144.584 294.651 144.787 294.869 144.99 295.085 145.091 295.387 145.091 295.772 145.091 296.028 145.032 296.391 144.915 296.861L144.519 298.455C144.41 298.896 144.355 299.208 144.355 299.391 144.355 299.553 144.381 299.67 144.434 299.744 144.487 299.817 144.57 299.853 144.684 299.853 144.805 299.853 144.935 299.804 145.073 299.705 145.211 299.604 145.405 299.415 145.657 299.136L146.003 299.477C145.655 299.849 145.351 300.122 145.091 300.295 144.832 300.467 144.536 300.553 144.203 300.553 143.939 300.553 143.729 300.458 143.57 300.271 143.412 300.081 143.333 299.841 143.333 299.549 143.333 299.286 143.4 298.899 143.534 298.387L143.801 297.335C143.899 296.954 143.963 296.672 143.993 296.49 144.024 296.307 144.039 296.16 144.039 296.046 144.039 295.766 143.992 295.564 143.899 295.441 143.806 295.316 143.654 295.255 143.443 295.255 143.272 295.255 143.089 295.322 142.892 295.459 142.695 295.594 142.487 295.799 142.266 296.073 142.045 296.347 141.867 296.613 141.733 296.87 141.6 297.128 141.49 297.444 141.405 297.821L140.827 300.455 139.775 300.455 140.663 296.599C140.752 296.209 140.797 295.909 140.797 295.699 140.797 295.537 140.77 295.42 140.718 295.346 140.665 295.273 140.582 295.237 140.468 295.237 140.343 295.237 140.21 295.288 140.07 295.391 139.93 295.495 139.738 295.682 139.495 295.954L139.148 295.613C139.521 295.225 139.832 294.947 140.079 294.783 140.326 294.62 140.606 294.537 140.918 294.537Z" fill="#FFFFFF" fill-rule="evenodd" transform="matrix(1.00046 0 0 1 -39.3406 -5.70329)"/><path d="M148.285 298.464 148.504 298.464 147.843 301.441C147.801 301.617 147.772 301.756 147.755 301.861 147.739 301.965 147.731 302.06 147.731 302.144 147.731 302.256 147.754 302.339 147.8 302.388 147.846 302.439 147.915 302.465 148.008 302.465 148.062 302.465 148.115 302.454 148.169 302.433 148.222 302.412 148.28 302.379 148.341 302.336 148.402 302.291 148.469 302.234 148.542 302.163 148.615 302.093 148.696 302.009 148.786 301.911L149.09 302.205C148.935 302.364 148.794 302.496 148.667 302.606 148.541 302.714 148.421 302.803 148.307 302.872 148.194 302.941 148.083 302.99 147.974 303.019 147.866 303.049 147.75 303.064 147.628 303.064 147.515 303.064 147.413 303.043 147.322 303.001 147.231 302.96 147.153 302.902 147.087 302.83 147.021 302.756 146.971 302.669 146.935 302.568 146.899 302.466 146.881 302.355 146.881 302.232 146.881 302.135 146.893 302.012 146.917 301.866 146.941 301.72 146.971 301.561 147.009 301.39 147.046 301.219 147.087 301.039 147.132 300.851 147.176 300.664 147.22 300.478 147.264 300.292 147.307 300.107 147.345 299.93 147.38 299.759 147.414 299.586 147.439 299.432 147.454 299.29 147.46 299.266 147.463 299.244 147.463 299.221 147.463 299.199 147.463 299.179 147.463 299.161 147.457 299.044 147.416 298.96 147.34 298.906 147.264 298.852 147.129 298.824 146.935 298.818L146.989 298.513ZM148.026 296.662 148.92 296.662 148.701 297.623 147.816 297.623Z" fill="#FFFFFF" fill-rule="evenodd" transform="matrix(1.00046 0 0 1 -39.3406 -5.70329)"/><path d="M491.008 79.9214C491.008 74.5333 495.376 70.1654 500.764 70.1654L598.32 70.1654C603.708 70.1654 608.076 74.5333 608.076 79.9214L608.076 118.943C608.076 124.331 603.708 128.699 598.32 128.699L500.764 128.699C495.376 128.699 491.008 124.331 491.008 118.943Z" stroke="#042433" stroke-width="1.03184" stroke-miterlimit="8" fill="#F2AA84" fill-rule="evenodd" transform="matrix(1.00046 0 0 1 -39.3406 -5.70329)"/><text fill="#FFFFFF" font-family="Aptos,Aptos_MSFontService,sans-serif" font-weight="400" font-size="83" transform="matrix(0.150155 0 0 0.150087 466.354 90)">Occupancy data</text><path d="M539.36 105.01C539.738 105.01 540.082 105.032 540.391 105.077 540.702 105.121 541.011 105.198 541.318 105.308L541.045 106.585 540.553 106.585C540.508 106.224 540.389 105.951 540.197 105.764 540.004 105.577 539.701 105.484 539.288 105.484 538.967 105.484 538.707 105.566 538.509 105.731 538.311 105.895 538.21 106.111 538.21 106.378 538.21 106.524 538.236 106.653 538.287 106.765 538.338 106.876 538.44 106.999 538.594 107.133 538.748 107.267 538.988 107.431 539.312 107.625 539.567 107.779 539.773 107.92 539.926 108.048 540.08 108.176 540.202 108.303 540.29 108.428 540.38 108.554 540.445 108.687 540.486 108.827 540.526 108.967 540.547 109.136 540.547 109.335 540.547 109.695 540.451 110.005 540.257 110.262 540.065 110.52 539.804 110.711 539.472 110.837 539.142 110.963 538.767 111.025 538.345 111.025 538.008 111.025 537.677 111 537.353 110.95 537.029 110.899 536.667 110.813 536.271 110.691L536.562 109.365 537.036 109.365C537.053 109.754 537.163 110.048 537.365 110.247 537.568 110.446 537.891 110.545 538.332 110.545 538.717 110.545 539.019 110.459 539.235 110.286 539.453 110.114 539.561 109.87 539.561 109.554 539.561 109.371 539.531 109.214 539.469 109.082 539.409 108.95 539.31 108.824 539.172 108.702 539.034 108.58 538.815 108.428 538.515 108.246 538.198 108.055 537.952 107.883 537.776 107.729 537.599 107.575 537.467 107.407 537.377 107.227 537.289 107.047 537.244 106.839 537.244 106.603 537.244 106.283 537.329 106.002 537.502 105.761 537.674 105.52 537.921 105.334 538.242 105.204 538.561 105.075 538.935 105.01 539.36 105.01Z" fill="#FFFFFF" fill-rule="evenodd" transform="matrix(1.00046 0 0 1 -39.3406 -5.70329)"/><path d="M543.571 109.426 543.789 109.426 543.129 112.403C543.087 112.579 543.057 112.719 543.042 112.823 543.025 112.928 543.016 113.022 543.016 113.105 543.016 113.218 543.04 113.3 543.085 113.351 543.132 113.401 543.201 113.427 543.294 113.427 543.348 113.427 543.4 113.416 543.454 113.396 543.508 113.375 543.565 113.342 543.627 113.297 543.687 113.253 543.754 113.195 543.828 113.125 543.9 113.055 543.983 112.971 544.071 112.873L544.376 113.168C544.22 113.326 544.08 113.459 543.953 113.568 543.826 113.676 543.706 113.765 543.592 113.834 543.48 113.902 543.369 113.951 543.261 113.981 543.151 114.011 543.035 114.026 542.914 114.026 542.8 114.026 542.698 114.005 542.608 113.963 542.516 113.922 542.438 113.864 542.372 113.791 542.308 113.718 542.257 113.631 542.221 113.53 542.185 113.428 542.167 113.317 542.167 113.194 542.167 113.096 542.178 112.974 542.203 112.828 542.227 112.682 542.257 112.523 542.294 112.352 542.332 112.18 542.372 112.001 542.417 111.813 542.462 111.625 542.506 111.439 542.549 111.254 542.593 111.069 542.632 110.891 542.665 110.72 542.699 110.549 542.725 110.393 542.74 110.253 542.746 110.229 542.747 110.206 542.747 110.184 542.747 110.161 542.747 110.141 542.747 110.123 542.743 110.007 542.701 109.922 542.626 109.868 542.549 109.815 542.414 109.785 542.221 109.779L542.275 109.475ZM543.312 107.624 544.205 107.624 543.987 108.585 543.102 108.585Z" fill="#FFFFFF" fill-rule="evenodd" transform="matrix(1.00046 0 0 1 -39.3406 -5.70329)"/><path d="M544.233 101.589 544.823 101.589 544.694 102.988 545.842 102.179 546.133 102.679 544.859 103.274 546.133 103.873 545.842 104.369 544.694 103.56 544.823 104.959 544.233 104.959 544.368 103.56 543.214 104.369 542.918 103.873 544.197 103.274 542.918 102.679 543.214 102.179 544.368 102.988Z" fill="#FFFFFF" fill-rule="evenodd" transform="matrix(1.00046 0 0 1 -39.3406 -5.70329)"/><path d="M548.029 109.511 549.093 109.511C549.15 109.795 549.179 110.075 549.179 110.35 549.179 110.634 549.129 110.894 549.031 111.129 548.935 111.364 548.779 111.598 548.566 111.831 548.355 112.065 548.06 112.321 547.688 112.601L547.359 112.23C547.567 112.035 547.717 111.86 547.81 111.704 547.903 111.548 547.97 111.37 548.011 111.171 548.051 110.973 548.071 110.723 548.071 110.423 548.071 110.115 548.057 109.811 548.029 109.511Z" fill="#FFFFFF" fill-rule="evenodd" transform="matrix(1.00046 0 0 1 -39.3406 -5.70329)"/><path d="M555.743 105.484C555.331 105.484 554.958 105.652 554.631 105.986 554.302 106.321 554.043 106.772 553.855 107.339 553.666 107.907 553.572 108.473 553.572 109.036 553.572 109.458 553.63 109.774 553.746 109.982 553.861 110.191 554.055 110.296 554.326 110.296 554.453 110.296 554.58 110.268 554.709 110.213 554.84 110.159 554.973 110.071 555.114 109.949 555.254 109.827 555.392 109.679 555.527 109.505 555.664 109.331 555.788 109.155 555.902 108.979 556.015 108.802 556.12 108.593 556.218 108.352 556.315 108.111 556.399 107.82 556.467 107.479L556.522 107.218C556.582 106.926 556.614 106.65 556.614 106.391 556.614 106.074 556.546 105.844 556.413 105.7 556.279 105.556 556.055 105.484 555.743 105.484ZM558.292 102.224 558.651 102.224 557.136 108.957C557.048 109.355 557.003 109.655 557.003 109.858 557.003 110.02 557.03 110.137 557.082 110.21 557.135 110.283 557.217 110.32 557.331 110.32 557.453 110.32 557.582 110.27 557.72 110.171 557.858 110.071 558.053 109.882 558.304 109.602L558.651 109.943C558.278 110.336 557.963 110.614 557.708 110.776 557.453 110.938 557.177 111.019 556.881 111.019 556.63 111.019 556.429 110.936 556.279 110.77 556.129 110.604 556.054 110.383 556.054 110.107 556.054 109.884 556.101 109.647 556.194 109.395L556.114 109.371C555.725 109.939 555.356 110.354 555.008 110.618 554.658 110.882 554.29 111.013 553.9 111.013 553.455 111.013 553.109 110.845 552.863 110.509 552.619 110.172 552.495 109.7 552.495 109.091 552.495 108.394 552.632 107.724 552.907 107.081 553.18 106.438 553.557 105.931 554.034 105.56 554.513 105.189 555.045 105.004 555.634 105.004 555.881 105.004 556.11 105.029 556.318 105.08 556.527 105.13 556.741 105.219 556.961 105.344L557.276 103.939C557.309 103.806 557.337 103.657 557.361 103.495 557.385 103.333 557.397 103.191 557.397 103.07 557.397 102.948 557.376 102.855 557.331 102.793 557.286 102.73 557.223 102.684 557.139 102.656 557.057 102.628 556.908 102.607 556.692 102.595L556.765 102.279Z" fill="#FFFFFF" fill-rule="evenodd" transform="matrix(1.00046 0 0 1 -39.3406 -5.70329)"/><path d="M561.139 108.931 561.358 108.931 560.696 111.908C560.656 112.084 560.626 112.224 560.609 112.328 560.594 112.432 560.585 112.526 560.585 112.61 560.585 112.723 560.608 112.805 560.654 112.856 560.701 112.906 560.77 112.932 560.863 112.932 560.915 112.932 560.969 112.921 561.023 112.9 561.077 112.879 561.134 112.847 561.196 112.802 561.256 112.757 561.324 112.7 561.397 112.63 561.469 112.56 561.55 112.476 561.64 112.377L561.945 112.672C561.789 112.83 561.648 112.964 561.522 113.072 561.396 113.181 561.276 113.27 561.161 113.338 561.049 113.407 560.938 113.456 560.828 113.486 560.72 113.516 560.605 113.531 560.483 113.531 560.369 113.531 560.267 113.51 560.175 113.468 560.085 113.426 560.007 113.369 559.941 113.296 559.875 113.223 559.826 113.136 559.79 113.034 559.754 112.933 559.736 112.821 559.736 112.699 559.736 112.601 559.748 112.479 559.772 112.333 559.796 112.187 559.826 112.028 559.863 111.856 559.901 111.685 559.941 111.506 559.986 111.318 560.031 111.13 560.075 110.944 560.118 110.759 560.162 110.574 560.199 110.396 560.234 110.225 560.268 110.053 560.292 109.898 560.307 109.758 560.313 109.734 560.316 109.711 560.316 109.688 560.316 109.666 560.316 109.646 560.316 109.628 560.31 109.512 560.27 109.427 560.193 109.373 560.118 109.32 559.983 109.29 559.79 109.284L559.844 108.98ZM560.881 107.129 561.774 107.129 561.555 108.09 560.671 108.09Z" fill="#FFFFFF" fill-rule="evenodd" transform="matrix(1.00046 0 0 1 -39.3406 -5.70329)"/><path d="M237.662 154.739C237.662 137.539 260.609 123.596 288.917 123.596 317.223 123.596 340.171 137.539 340.171 154.739 340.171 171.939 317.223 185.882 288.917 185.882 260.609 185.882 237.662 171.939 237.662 154.739Z" stroke="#042433" stroke-width="1.03184" stroke-miterlimit="8" fill="#104862" fill-rule="evenodd" transform="matrix(1.00046 0 0 1 -39.3406 -5.70329)"/><text fill="#FFFFFF" font-family="Aptos,Aptos_MSFontService,sans-serif" font-weight="400" font-size="83" transform="matrix(0.150155 0 0 0.150087 229.41 145)">Density</text><path d="M287.159 158.413C286.98 158.413 286.788 158.419 286.581 158.431L285.005 165.628C285.124 165.64 285.349 165.646 285.681 165.646 286.338 165.646 286.895 165.532 287.354 165.302 287.812 165.073 288.208 164.714 288.54 164.226 288.873 163.737 289.118 163.222 289.275 162.68 289.434 162.138 289.512 161.568 289.512 160.968 289.512 160.121 289.316 159.483 288.92 159.056 288.525 158.628 287.938 158.413 287.159 158.413ZM284.836 157.885 287.141 157.885C287.753 157.885 288.25 157.932 288.631 158.025 289.013 158.118 289.368 158.286 289.698 158.529 290.029 158.772 290.278 159.096 290.444 159.5 290.609 159.902 290.694 160.381 290.694 160.932 290.694 161.48 290.631 162.002 290.504 162.502 290.378 163 290.198 163.459 289.963 163.879 289.728 164.298 289.446 164.663 289.118 164.974 288.789 165.284 288.471 165.521 288.163 165.688 287.854 165.855 287.51 165.979 287.129 166.062 286.748 166.146 286.304 166.188 285.796 166.188L283.242 166.188 283.309 165.889C283.462 165.865 283.578 165.825 283.656 165.771 283.733 165.715 283.797 165.64 283.85 165.542 283.904 165.445 283.952 165.326 283.997 165.187 284.04 165.047 284.108 164.775 284.196 164.375L285.23 159.691C285.32 159.285 285.365 158.96 285.365 158.712 285.365 158.521 285.317 158.388 285.221 158.313 285.127 158.238 284.975 158.194 284.768 158.182Z" fill="#FFFFFF" fill-rule="evenodd" transform="matrix(1.00046 0 0 1 -39.3406 -5.70329)"/><path d="M292.913 164.196 293.132 164.196 292.472 167.172C292.43 167.348 292.4 167.489 292.384 167.593 292.369 167.698 292.359 167.791 292.359 167.875 292.359 167.987 292.382 168.07 292.429 168.121 292.475 168.172 292.544 168.196 292.637 168.196 292.691 168.196 292.744 168.185 292.798 168.166 292.852 168.145 292.909 168.112 292.97 168.067 293.03 168.022 293.098 167.965 293.171 167.894 293.243 167.825 293.325 167.741 293.415 167.642L293.719 167.938C293.563 168.095 293.422 168.229 293.296 168.337 293.17 168.447 293.05 168.535 292.936 168.603 292.823 168.672 292.712 168.721 292.603 168.751 292.495 168.781 292.379 168.796 292.257 168.796 292.143 168.796 292.041 168.775 291.951 168.733 291.86 168.691 291.782 168.634 291.716 168.561 291.65 168.489 291.6 168.4 291.564 168.299 291.528 168.197 291.51 168.086 291.51 167.965 291.51 167.866 291.522 167.744 291.546 167.597 291.57 167.452 291.6 167.292 291.638 167.121 291.675 166.95 291.716 166.77 291.761 166.583 291.806 166.395 291.849 166.209 291.893 166.024 291.936 165.84 291.974 165.661 292.008 165.49 292.043 165.319 292.067 165.163 292.082 165.023 292.088 164.999 292.091 164.975 292.091 164.954 292.091 164.932 292.091 164.911 292.091 164.893 292.085 164.777 292.044 164.691 291.968 164.639 291.893 164.585 291.758 164.555 291.564 164.549L291.618 164.244ZM292.655 162.394 293.548 162.394 293.329 163.356 292.445 163.356Z" fill="#FFFFFF" fill-rule="evenodd" transform="matrix(1.00046 0 0 1 -39.3406 -5.70329)"/><path d="M373.19 155.039C373.19 137.84 396.003 123.896 424.144 123.896 452.286 123.896 475.099 137.84 475.099 155.039 475.099 172.239 452.286 186.182 424.144 186.182 396.003 186.182 373.19 172.239 373.19 155.039Z" stroke="#042433" stroke-width="1.03184" stroke-miterlimit="8" fill="#C04F15" fill-rule="evenodd" transform="matrix(1.00046 0 0 1 -39.3406 -5.70329)"/><text fill="#FFFFFF" font-family="Aptos,Aptos_MSFontService,sans-serif" font-weight="400" font-size="83" transform="matrix(0.150155 0 0 0.150087 358.603 138)">Detection </text><text fill="#FFFFFF" font-family="Aptos,Aptos_MSFontService,sans-serif" font-weight="400" font-size="83" transform="matrix(0.150155 0 0 0.150087 356.463 153)">probability</text><path d="M423.08 168.496C422.927 168.496 422.78 168.523 422.639 168.577 422.5 168.633 422.354 168.726 422.202 168.858 422.049 168.99 421.905 169.167 421.767 169.389 421.629 169.613 421.506 169.875 421.396 170.177 421.287 170.479 421.18 170.866 421.08 171.336L420.867 172.316C420.859 172.359 420.85 172.424 420.84 172.506 420.829 172.59 420.825 172.666 420.825 172.735 420.825 172.994 420.931 173.194 421.143 173.335 421.356 173.474 421.64 173.544 421.992 173.544 422.409 173.544 422.78 173.375 423.101 173.036 423.424 172.697 423.675 172.232 423.853 171.637 424.032 171.043 424.12 170.452 424.12 169.863 424.12 169.601 424.093 169.371 424.038 169.173 423.984 168.976 423.879 168.814 423.726 168.687 423.571 168.559 423.357 168.496 423.08 168.496ZM423.239 168.014C423.633 168.014 423.979 168.095 424.28 168.256 424.58 168.415 424.806 168.648 424.959 168.952 425.114 169.256 425.191 169.629 425.191 170.071 425.191 170.761 425.057 171.414 424.787 172.032 424.517 172.651 424.141 173.138 423.661 173.492 423.181 173.847 422.642 174.025 422.046 174.025 421.772 174.025 421.509 174 421.261 173.952 421.015 173.902 420.768 173.82 420.52 173.703L419.888 176.554 418.89 176.554 420.125 171.051C420.271 170.401 420.479 169.857 420.751 169.421 421.023 168.982 421.368 168.639 421.785 168.39 422.202 168.14 422.687 168.014 423.239 168.014Z" fill="#FFFFFF" fill-rule="evenodd" transform="matrix(1.00046 0 0 1 -39.3406 -5.70329)"/><path d="M427.517 171.936 427.736 171.936 427.074 174.912C427.032 175.089 427.004 175.229 426.987 175.333 426.971 175.438 426.963 175.532 426.963 175.615 426.963 175.729 426.986 175.81 427.032 175.861 427.079 175.912 427.148 175.937 427.239 175.937 427.293 175.937 427.347 175.927 427.401 175.906 427.454 175.885 427.512 175.852 427.572 175.807 427.634 175.762 427.702 175.705 427.774 175.636 427.847 175.565 427.928 175.481 428.018 175.382L428.321 175.678C428.167 175.835 428.026 175.969 427.9 176.077 427.772 176.187 427.652 176.275 427.539 176.344 427.427 176.412 427.316 176.461 427.206 176.491 427.098 176.521 426.983 176.536 426.86 176.536 426.747 176.536 426.645 176.515 426.553 176.473 426.463 176.431 426.385 176.374 426.319 176.301 426.253 176.229 426.202 176.142 426.168 176.039 426.132 175.939 426.114 175.826 426.114 175.705 426.114 175.606 426.126 175.484 426.15 175.337 426.174 175.191 426.204 175.032 426.241 174.861 426.279 174.69 426.319 174.51 426.364 174.322 426.408 174.135 426.453 173.949 426.496 173.764 426.538 173.58 426.577 173.401 426.612 173.23 426.646 173.059 426.67 172.903 426.685 172.763 426.691 172.739 426.694 172.717 426.694 172.694 426.694 172.672 426.694 172.651 426.694 172.632 426.688 172.517 426.648 172.431 426.571 172.379 426.496 172.325 426.361 172.295 426.168 172.289L426.22 171.986ZM427.257 170.134 428.152 170.134 427.933 171.096 427.047 171.096Z" fill="#FFFFFF" fill-rule="evenodd" transform="matrix(1.00046 0 0 1 -39.3406 -5.70329)"/><path d="M84.2736 198.865C84.2736 181.665 107.187 167.722 135.453 167.722 163.719 167.722 186.633 181.665 186.633 198.865 186.633 216.065 163.719 230.008 135.453 230.008 107.187 230.008 84.2736 216.065 84.2736 198.865Z" stroke="#042433" stroke-width="1.03184" stroke-miterlimit="8" fill="#104862" fill-rule="evenodd" transform="matrix(1.00046 0 0 1 -39.3406 -5.70329)"/><text fill="#FFFFFF" font-family="Aptos,Aptos_MSFontService,sans-serif" font-weight="400" font-size="83" transform="matrix(0.150155 0 0 0.150087 74.2373 182)">Capture </text><text fill="#FFFFFF" font-family="Aptos,Aptos_MSFontService,sans-serif" font-weight="400" font-size="83" transform="matrix(0.150155 0 0 0.150087 67.5685 197)">probability</text><path d="M134.557 212.563C134.35 212.563 134.147 212.632 133.946 212.773 133.745 212.913 133.525 213.136 133.286 213.444 133.047 213.753 132.86 214.056 132.726 214.357 132.592 214.657 132.487 215.002 132.41 215.391L132.361 215.647C132.321 215.862 132.295 216.026 132.285 216.14 132.275 216.252 132.27 216.365 132.27 216.474 132.27 216.789 132.338 217.021 132.474 217.165 132.61 217.309 132.844 217.381 133.176 217.381 133.383 217.381 133.574 217.34 133.748 217.259 133.922 217.177 134.088 217.06 134.244 216.905 134.4 216.752 134.541 216.564 134.667 216.347 134.792 216.128 134.905 215.872 135.004 215.583 135.104 215.293 135.179 214.994 135.229 214.688 135.28 214.382 135.305 214.095 135.305 213.828 135.305 213.402 135.245 213.085 135.126 212.877 135.006 212.667 134.817 212.563 134.557 212.563ZM131.996 211.846C132.248 211.846 132.447 211.928 132.596 212.095 132.744 212.261 132.818 212.482 132.818 212.757 132.818 212.985 132.771 213.223 132.678 213.476L132.751 213.5C133.501 212.401 134.247 211.852 134.989 211.852 135.431 211.852 135.775 212.02 136.02 212.356 136.265 212.692 136.388 213.166 136.388 213.779 136.388 214.448 136.253 215.107 135.983 215.752 135.714 216.399 135.34 216.913 134.861 217.292 134.383 217.67 133.847 217.861 133.256 217.861 132.716 217.861 132.268 217.743 131.911 217.508L131.631 218.84C131.571 219.128 131.54 219.365 131.54 219.551 131.54 219.73 131.586 219.857 131.677 219.932 131.768 220.007 131.946 220.057 132.209 220.081L132.161 220.38 130.281 220.38 131.747 213.926C131.832 213.552 131.875 213.246 131.875 213.007 131.875 212.845 131.848 212.727 131.796 212.655 131.743 212.581 131.66 212.545 131.546 212.545 131.421 212.545 131.288 212.596 131.148 212.7 131.008 212.803 130.816 212.991 130.573 213.262L130.226 212.922C130.591 212.54 130.9 212.266 131.154 212.098 131.407 211.93 131.688 211.846 131.996 211.846Z" fill="#FFFFFF" fill-rule="evenodd" transform="matrix(1.00046 0 0 1 -39.3406 -5.70329)"/><path d="M138.713 215.772 138.932 215.772 138.27 218.75C138.229 218.925 138.2 219.065 138.183 219.17 138.167 219.273 138.159 219.368 138.159 219.45 138.159 219.565 138.182 219.646 138.228 219.697 138.274 219.748 138.343 219.773 138.436 219.773 138.489 219.773 138.543 219.763 138.597 219.742 138.65 219.721 138.708 219.688 138.769 219.643 138.83 219.599 138.897 219.541 138.97 219.472 139.043 219.401 139.124 219.317 139.214 219.218L139.518 219.514C139.363 219.671 139.222 219.805 139.095 219.914 138.969 220.022 138.849 220.111 138.735 220.18 138.622 220.247 138.511 220.297 138.402 220.327 138.293 220.357 138.178 220.372 138.056 220.372 137.943 220.372 137.84 220.351 137.75 220.309 137.659 220.267 137.581 220.21 137.515 220.136 137.449 220.064 137.399 219.977 137.363 219.875 137.327 219.775 137.309 219.662 137.309 219.541 137.309 219.441 137.321 219.32 137.345 219.174 137.369 219.027 137.399 218.87 137.437 218.697 137.474 218.526 137.515 218.347 137.56 218.16 137.604 217.971 137.648 217.785 137.691 217.6 137.735 217.415 137.773 217.237 137.808 217.066 137.842 216.895 137.867 216.738 137.881 216.599 137.887 216.575 137.89 216.552 137.89 216.53 137.89 216.507 137.89 216.488 137.89 216.47 137.884 216.353 137.844 216.269 137.768 216.215 137.691 216.161 137.557 216.131 137.363 216.125L137.417 215.821ZM138.454 213.971 139.348 213.971 139.129 214.931 138.244 214.931Z" fill="#FFFFFF" fill-rule="evenodd" transform="matrix(1.00046 0 0 1 -39.3406 -5.70329)"/><path d="M372.74 47.1272C372.74 29.9274 395.654 15.9842 423.919 15.9842 452.185 15.9842 475.099 29.9274 475.099 47.1272 475.099 64.3269 452.185 78.2701 423.919 78.2701 395.654 78.2701 372.74 64.3269 372.74 47.1272Z" stroke="#042433" stroke-width="1.03184" stroke-miterlimit="8" fill="#C04F15" fill-rule="evenodd" transform="matrix(1.00046 0 0 1 -39.3406 -5.70329)"/><text fill="#FFFFFF" font-family="Aptos,Aptos_MSFontService,sans-serif" font-weight="400" font-size="83" transform="matrix(0.150155 0 0 0.150087 354.005 30)">Occupancy </text><text fill="#FFFFFF" font-family="Aptos,Aptos_MSFontService,sans-serif" font-weight="400" font-size="83" transform="matrix(0.150155 0 0 0.150087 356.266 45)">probability</text><path d="M422.704 57.4783 423.666 57.4783 421.889 65.5378C422.461 65.5014 422.959 65.328 423.382 65.0178 423.805 64.7076 424.134 64.2818 424.368 63.7404 424.601 63.199 424.718 62.5898 424.718 61.9126 424.718 61.434 424.643 60.9617 424.493 60.4954L424.565 60.1911 425.642 60.1911C425.702 60.4873 425.732 60.8319 425.732 61.2252 425.732 62.1336 425.57 62.9587 425.246 63.7009 424.922 64.4429 424.46 65.0208 423.859 65.4344 423.259 65.8481 422.564 66.067 421.773 66.0913L421.213 68.6217 420.253 68.6217 420.813 66.073C419.295 65.9312 418.537 65.2884 418.537 64.1449 418.537 63.8408 418.605 63.415 418.738 62.8675L418.926 62.1133C419.028 61.7078 419.079 61.4178 419.079 61.2435 419.079 61.0813 419.049 60.9657 418.99 60.8967 418.932 60.8278 418.848 60.7933 418.738 60.7933 418.612 60.7933 418.492 60.8329 418.377 60.912 418.261 60.9911 418.144 61.0914 418.027 61.2131L417.692 60.8785C417.995 60.5907 418.261 60.3879 418.486 60.2702 418.711 60.1527 418.936 60.0939 419.163 60.0939 419.468 60.0939 419.702 60.1851 419.867 60.3676 420.031 60.55 420.113 60.8137 420.113 61.1583 420.113 61.4016 420.062 61.7301 419.96 62.1438L419.735 63.044C419.694 63.2061 419.657 63.4028 419.619 63.634 419.583 63.8651 419.565 64.0536 419.565 64.1997 419.565 64.6295 419.681 64.9508 419.912 65.1637 420.143 65.3766 420.484 65.5054 420.934 65.55Z" fill="#FFFFFF" fill-rule="evenodd" transform="matrix(1.00046 0 0 1 -39.3406 -5.70329)"/><path d="M428.377 64.0146 428.596 64.0146 427.934 66.9919C427.892 67.1678 427.864 67.3078 427.847 67.4121 427.831 67.5164 427.822 67.6104 427.822 67.6938 427.822 67.807 427.846 67.8889 427.891 67.9397 427.937 67.9902 428.006 68.0156 428.099 68.0156 428.153 68.0156 428.206 68.0052 428.26 67.9844 428.314 67.9635 428.371 67.9306 428.432 67.8859 428.494 67.8412 428.56 67.7839 428.634 67.7139 428.707 67.6438 428.788 67.5596 428.877 67.4613L429.181 67.7564C429.025 67.9143 428.886 68.0477 428.758 68.1564 428.632 68.2652 428.512 68.3539 428.398 68.4225 428.285 68.4909 428.174 68.5402 428.066 68.5699 427.957 68.5997 427.841 68.6146 427.72 68.6146 427.605 68.6146 427.503 68.5937 427.413 68.552 427.322 68.5103 427.244 68.453 427.178 68.38 427.113 68.3069 427.062 68.2197 427.026 68.1184 426.99 68.0171 426.972 67.9053 426.972 67.7831 426.972 67.6848 426.984 67.5626 427.008 67.4166 427.032 67.2706 427.062 67.1119 427.1 66.9405 427.137 66.7691 427.178 66.5896 427.223 66.4019 427.268 66.2141 427.311 66.0279 427.355 65.8431 427.398 65.6582 427.437 65.4802 427.47 65.3088 427.505 65.1374 427.53 64.9818 427.545 64.8417 427.551 64.8179 427.554 64.7947 427.554 64.7724 427.554 64.75 427.554 64.7299 427.554 64.7121 427.548 64.5957 427.506 64.5109 427.431 64.4572 427.355 64.4036 427.22 64.3738 427.026 64.3678L427.08 64.0638ZM428.117 62.2131 429.012 62.2131 428.793 63.1743 427.907 63.1743Z" fill="#FFFFFF" fill-rule="evenodd" transform="matrix(1.00046 0 0 1 -39.3406 -5.70329)"/><text fill="#80350E" font-family="Aptos,Aptos_MSFontService,sans-serif" font-weight="400" font-size="83" transform="matrix(0.150155 0 0 0.150087 475.342 18)">Occupancy model</text><text fill="#0B3041" font-family="Aptos,Aptos_MSFontService,sans-serif" font-weight="400" font-size="83" transform="matrix(0.150155 0 0 0.150087 11.3928 122)">Density model</text><path d="M237.662 288.992C237.662 271.834 260.609 257.924 288.917 257.924 317.223 257.924 340.171 271.834 340.171 288.992 340.171 306.149 317.223 320.059 288.917 320.059 260.609 320.059 237.662 306.149 237.662 288.992Z" stroke="#042433" stroke-width="1.03184" stroke-miterlimit="8" fill="#104862" fill-rule="evenodd" transform="matrix(1.00046 0 0 1 -39.3406 -5.70329)"/><text fill="#FFFFFF" font-family="Aptos,Aptos_MSFontService,sans-serif" font-weight="400" font-size="83" transform="matrix(0.150155 0 0 0.150087 237.408 272)">Area </text><text fill="#FFFFFF" font-family="Aptos,Aptos_MSFontService,sans-serif" font-weight="400" font-size="83" transform="matrix(0.150155 0 0 0.150087 226.184 287)">sampled</text><path d="M289.955 300.767 287.789 304.601 290.168 304.601 290.065 302.642C290.053 302.373 290.042 302.04 290.035 301.638 290.027 301.237 290.023 300.946 290.023 300.767ZM289.993 299.484 290.911 299.484 291.348 306.267C291.369 306.588 291.405 306.837 291.457 307.018 291.51 307.199 291.582 307.332 291.674 307.419 291.765 307.506 291.897 307.562 292.073 307.587L292.005 307.884 289.475 307.884 289.542 307.587C289.781 307.566 289.96 307.473 290.077 307.307 290.195 307.14 290.254 306.849 290.254 306.432 290.254 306.273 290.248 306.1 290.236 305.914L290.192 305.129 287.516 305.129 287.182 305.725C287.024 306.005 286.908 306.246 286.835 306.447 286.763 306.646 286.725 306.825 286.725 306.978 286.725 307.319 286.931 307.521 287.341 307.587L287.273 307.884 284.785 307.884 284.852 307.587C284.978 307.571 285.097 307.521 285.208 307.437 285.319 307.355 285.438 307.229 285.564 307.06 285.69 306.892 285.865 306.613 286.093 306.224Z" fill="#FFFFFF" fill-rule="evenodd" transform="matrix(1.00046 0 0 1 -39.3406 -5.70329)"/><path d="M373.244 155.662 370.16 155.659 367.172 155.65 365.743 155.643 364.376 155.634 363.08 155.625 361.871 155.614 360.757 155.604 359.753 155.59 358.867 155.578 358.115 155.565 357.508 155.551 357.051 155.536 356.733 155.52 356.604 155.5 356.509 155.485 356.577 155.493 356.301 155.478 356.314 155.478 355.869 155.464 355.875 155.464 355.271 155.451 355.274 155.451 354.525 155.437 354.528 155.437 353.646 155.424 352.645 155.412 351.534 155.401 350.326 155.391 349.032 155.38 347.666 155.373 346.359 155.368 346.365 153.992 347.675 153.996 349.043 154.005 350.336 154.014 351.548 154.025 352.661 154.037 353.665 154.049 354.549 154.061 355.301 154.074 355.909 154.089 356.365 154.103 356.684 154.119 356.813 154.14 356.907 154.154 356.84 154.148 357.116 154.161 357.102 154.161 357.548 154.175 357.542 154.175 358.145 154.188 358.142 154.188 358.891 154.202 358.888 154.202 359.769 154.215 360.77 154.227 361.883 154.238 363.091 154.248 364.383 154.259 365.749 154.266 367.176 154.274 370.161 154.283 373.246 154.287ZM347.042 158.121 340.171 154.664 347.059 151.242Z" fill="#80350E" transform="matrix(1.00046 0 0 1 -39.3406 -5.70329)"/><path d="M0.4665-0.505548 80.1771 73.0485 79.244 74.0596-0.4665 0.505548ZM81.5375 70.5597 84.2605 77.7525 76.8725 75.6152Z" fill="#80350E" transform="matrix(-1.00046 0 0 1 333.931 40.1481)"/><path d="M475.313 45.1977 543.832 67.6191 543.405 68.9266 474.884 46.5052ZM544.035 64.7899 549.503 70.1983 541.895 71.3279Z" fill="#80350E" transform="matrix(1.00046 0 0 1 -39.3406 -5.70329)"/><path d="M0.239344-0.644916 68.4492 24.6694 67.9706 25.9593-0.239344 0.644916ZM68.7617 21.8505 74.0141 27.4685 66.3683 28.2996Z" fill="#80350E" transform="matrix(1.00046 0 0 -1 436.425 150.465)"/><path d="M8.50159e-07-0.687896 5.50318-0.68789 5.50318 0.687904-8.50159e-07 0.687896ZM9.63056-0.687884 15.1337-0.687878 15.1337 0.687916 9.63056 0.687908ZM19.2611-0.687872 24.7643-0.687866 24.7643 0.687927 19.2611 0.68792ZM28.8917-0.687861 34.3949-0.687854 34.3949 0.68794 28.8917 0.687932ZM36.9481-3.43944 43.8271 5.4165e-05 36.9481 3.43953Z" fill="#0B3041" transform="matrix(-1.00046 0 0 1 198.431 283.288)"/><path d="M136.141 230.308 136.141 235.811 134.765 235.811 134.765 230.308ZM136.141 239.939 136.141 245.441 134.765 245.441 134.765 239.939ZM136.141 249.568 136.141 253.498 134.765 253.498 134.765 249.568ZM138.893 252.81 135.453 259.689 132.014 252.81Z" fill="#0B3041" transform="matrix(1.00046 0 0 1 -39.3406 -5.70329)"/><path d="M0.556857-0.403871 3.78782 4.05098 2.67411 4.85874-0.556857 0.403871ZM6.21104 7.39214 9.442 11.847 8.32829 12.6547 5.09733 8.19987ZM11.8652 15.1882 15.0962 19.643 13.9825 20.4508 10.7515 15.9959ZM17.5194 22.9841 20.7504 27.439 19.6367 28.2467 16.4057 23.7919ZM23.1737 30.7802 26.4046 35.2351 25.2908 36.0428 22.0599 31.588ZM28.8277 38.5761 32.0588 43.031 30.945 43.8388 27.7141 39.3839ZM34.4819 46.3722 37.7128 50.8271 36.5992 51.6347 33.3683 47.1798ZM40.1361 54.1682 43.367 58.623 42.2534 59.4308 39.0223 54.9759ZM45.7903 61.9643 49.0213 66.419 47.9076 67.2268 44.6766 62.7719ZM51.4445 69.7602 54.6755 74.2151 53.5617 75.0228 50.3308 70.568ZM57.0986 77.5562 59.5639 80.9553 58.4503 81.7631 55.985 78.3639ZM61.3875 78.783 62.6419 86.3709 55.819 82.8216Z" fill="#0B3041" transform="matrix(-1.00046 0 0 1 213.501 171.024)"/></g></svg>